<svg width="36" height="37" viewBox="0 0 36 37" fill="none" xmlns="http://www.w3.org/2000/svg">
<path d="M9.33751 7.34197C9.05461 7.06873 8.67571 6.91754 8.28241 6.92096C7.88912 6.92437 7.5129 7.08213 7.23478 7.36024C6.95667 7.63835 6.79892 8.01457 6.7955 8.40786C6.79208 8.80116 6.94327 9.18006 7.21651 9.46297L15.879 18.1255L7.21501 26.788C7.07175 26.9263 6.95747 27.0919 6.87886 27.2749C6.80025 27.4579 6.75887 27.6547 6.75714 27.8539C6.75541 28.053 6.79336 28.2506 6.86878 28.4349C6.9442 28.6192 7.05558 28.7867 7.19642 28.9276C7.33726 29.0684 7.50474 29.1798 7.68908 29.2552C7.87343 29.3306 8.07094 29.3686 8.27011 29.3668C8.46928 29.3651 8.66611 29.3237 8.84912 29.2451C9.03212 29.1665 9.19764 29.0522 9.33601 28.909L18 20.2465L26.6625 28.909C26.9454 29.1822 27.3243 29.3334 27.7176 29.33C28.1109 29.3266 28.4871 29.1688 28.7652 28.8907C29.0434 28.6126 29.2011 28.2364 29.2045 27.8431C29.2079 27.4498 29.0567 27.0709 28.7835 26.788L20.121 18.1255L28.7835 9.46297C29.0567 9.18006 29.2079 8.80116 29.2045 8.40786C29.2011 8.01457 29.0434 7.63835 28.7652 7.36024C28.4871 7.08213 28.1109 6.92437 27.7176 6.92096C27.3243 6.91754 26.9454 7.06873 26.6625 7.34197L18 16.0045L9.33751 7.34197Z" fill="black"/>
</svg>
