<svg width="50" height="48" viewBox="0 0 50 48" fill="none" xmlns="http://www.w3.org/2000/svg">
<g clip-path="url(#clip0_1154_1079)">
<path d="M9.10247 0H40.8973C45.7179 0 49.6153 3.89744 49.6153 8.71795V39.2821C49.6153 44.1026 45.7179 48 40.8973 48H9.10247C4.28196 48 0.384521 44.1026 0.384521 39.2821V8.71795C0.384521 3.89744 4.28196 0 9.10247 0Z" fill="#79D9A9"/>
<path d="M11.4614 33.6615V12.5538C11.4614 12.4102 11.523 12.3282 11.6666 12.3282C12.0153 12.3282 12.3435 12.3282 12.8153 12.3076C13.3076 12.2871 13.8204 12.2871 14.3742 12.2666C14.9281 12.2461 15.523 12.2461 16.1589 12.2256C16.7948 12.2051 17.4101 12.2051 18.0255 12.2051C19.7076 12.2051 21.1025 12.4102 22.2512 12.841C23.2768 13.1897 24.2204 13.7641 24.9999 14.523C25.6563 15.1794 26.1691 15.9794 26.4973 16.8615C26.805 17.723 26.9691 18.6051 26.9691 19.5282C26.9691 21.2923 26.5589 22.7487 25.7383 23.8974C24.9178 25.0461 23.7691 25.9076 22.4358 26.3999C21.0409 26.9128 19.5025 27.0974 17.8204 27.0974C17.3281 27.0974 16.9999 27.0974 16.7948 27.0769C16.5896 27.0564 16.3025 27.0564 15.9127 27.0564V33.641C15.9332 33.7846 15.8307 33.9076 15.6871 33.9282C15.6666 33.9282 15.646 33.9282 15.605 33.9282H11.7076C11.5435 33.9282 11.4614 33.8461 11.4614 33.6615ZM15.9332 16.2871V23.1794C16.2204 23.2 16.4871 23.2205 16.7332 23.2205H17.8204C18.6204 23.2205 19.4204 23.0974 20.1794 22.8512C20.8358 22.6666 21.4101 22.2769 21.8614 21.7641C22.2922 21.2512 22.4973 20.5538 22.4973 19.6512C22.5178 19.0153 22.3537 18.3794 22.0255 17.8256C21.6768 17.2923 21.1845 16.882 20.5896 16.6564C19.8307 16.3487 19.0101 16.2256 18.1691 16.2461C17.6358 16.2461 17.164 16.2461 16.7742 16.2666C16.364 16.2461 16.0768 16.2666 15.9332 16.2871Z" fill="#DEFFEF"/>
<path d="M39.7691 21.9281C39.1537 21.5999 38.4973 21.3743 37.7999 21.2307C37.0409 21.0666 36.2819 20.964 35.5025 20.964C35.0922 20.9435 34.6614 21.0051 34.2717 21.1076C34.005 21.1692 33.7794 21.3127 33.6358 21.5179C33.5332 21.682 33.4717 21.8871 33.4717 22.0717C33.4717 22.2563 33.5537 22.441 33.6768 22.6051C33.8614 22.8307 34.1076 23.0153 34.3742 23.1589C34.846 23.4051 35.3383 23.6307 35.8307 23.8358C36.9384 24.2051 38.005 24.7179 38.9896 25.3333C39.6666 25.764 40.2204 26.3384 40.6101 27.0358C40.9384 27.6922 41.1025 28.4102 41.0819 29.1486C41.1025 30.1128 40.8153 31.0768 40.2819 31.8769C39.7076 32.6974 38.9076 33.3333 37.9845 33.7025C36.9794 34.1333 35.7486 34.3589 34.2717 34.3589C33.3281 34.3589 32.405 34.2768 31.4819 34.0922C30.764 33.9692 30.046 33.7435 29.3896 33.4358C29.246 33.3538 29.1435 33.2102 29.164 33.0461V29.4769C29.164 29.4153 29.1845 29.3333 29.246 29.2922C29.3076 29.2512 29.3691 29.2717 29.4307 29.3127C30.2307 29.7845 31.0717 30.1127 31.9742 30.3179C32.7537 30.523 33.5742 30.6256 34.3948 30.6256C35.1742 30.6256 35.7281 30.523 36.0973 30.3384C36.4255 30.1948 36.6512 29.8461 36.6512 29.4769C36.6512 29.1897 36.4871 28.923 36.1589 28.6563C35.8307 28.3897 35.1537 28.082 34.1486 27.6922C33.1025 27.323 32.1383 26.8307 31.2358 26.2153C30.5999 25.764 30.0666 25.1692 29.6768 24.4717C29.3486 23.8153 29.1845 23.0974 29.205 22.3794C29.205 21.4974 29.4512 20.6563 29.9025 19.8974C30.4153 19.0769 31.1742 18.4204 32.0563 18.0102C33.0204 17.5179 34.2307 17.2922 35.6871 17.2922C36.5281 17.2922 37.3896 17.3538 38.2307 17.4769C38.846 17.5589 39.4409 17.723 39.9948 17.9486C40.0768 17.9692 40.1589 18.0512 40.1999 18.1333C40.2204 18.2153 40.2409 18.2974 40.2409 18.3794V21.723C40.2409 21.8051 40.1999 21.8871 40.1384 21.9281C39.9537 21.9692 39.8512 21.9692 39.7691 21.9281Z" fill="#DEFFEF"/>
</g>
<defs>
<clipPath id="clip0_1154_1079">
<rect width="49.2308" height="48" fill="white" transform="translate(0.384521)"/>
</clipPath>
</defs>
</svg>
